<svg width="67" height="67" viewBox="0 0 67 67" fill="none" xmlns="http://www.w3.org/2000/svg">
    <g clip-path="url(#clip0_1_558)">
        <path d="M33.5 67C52.0015 67 67 52.0015 67 33.5C67 14.9985 52.0015 0 33.5 0C14.9985 0 0 14.9985 0 33.5C0 52.0015 14.9985 67 33.5 67Z" fill="black"/>
        <path d="M37.6418 4.26352L36.6673 9.5017L41.54 10.4153L41.2354 12.1208L34.231 10.8417L35.51 3.83716L37.6418 4.26352Z" fill="white"/>
        <path d="M43.3672 13.3999L41.3572 12.4862L44.2199 5.96896L46.2299 6.8826L43.3672 13.3999Z" fill="white"/>
        <path d="M48.8491 7.73526L51.2245 9.86708L50.1281 14.8007L54.8791 13.1562L57.1327 15.1662L52.3818 20.4044L50.7372 18.9425L54.0263 15.288L48.6663 17.1153L47.7527 16.3234L48.9709 10.7807L45.6818 14.4353L44.0981 13.0344L48.8491 7.73526Z" fill="white"/>
        <path d="M53.2345 23.1455L52.1382 21.1964L58.2291 17.6636L59.3255 19.6127L53.2345 23.1455Z" fill="white"/>
        <path d="M59.6908 24.6071L58.8381 21.6835L60.4826 21.1962L62.7363 29.2362L61.0918 29.7235L60.2999 26.7999L55.0617 28.2617L54.4526 26.1299L59.6908 24.6071Z" fill="white"/>
        <path d="M62.3709 39.3472L60.7872 39.2254L61.2136 33.9872L60.1781 33.9263L59.6909 38.9818L58.0463 38.8599L58.4727 33.7436L57.3154 33.6827L56.8891 38.9818L55.2445 38.8599L55.8536 31.3072L62.9191 31.8554L62.3709 39.3472Z" fill="white"/>
        <path d="M61.7009 42.2707L59.5691 46.4735C59.2646 47.0825 58.96 47.5698 58.6555 47.9962C58.3509 48.4225 58.0464 48.7271 57.7418 49.0316C57.4373 49.3362 57.1327 49.458 56.8282 49.5798C56.5237 49.7016 56.2191 49.7625 55.9146 49.7625C55.61 49.7625 55.3664 49.7625 55.0618 49.7016C54.8182 49.6407 54.5746 49.5189 54.3309 49.3971L54.0873 49.3362C53.8437 49.2144 53.6609 49.0925 53.4173 48.9098C53.1737 48.7271 52.9909 48.5444 52.8691 48.3007C52.6864 48.0571 52.5646 47.7525 52.5037 47.448C52.3818 47.1435 52.3818 46.778 52.3818 46.3516C52.3818 45.9253 52.5037 45.4989 52.6255 45.0116C52.7473 44.5244 52.9909 43.9762 53.2955 43.3062L55.4273 39.1035L61.7009 42.2707ZM55.9146 41.8444L54.8182 43.9153C54.5137 44.4635 54.3918 44.9507 54.3309 45.3162C54.27 45.6816 54.27 46.0471 54.3309 46.2907C54.3918 46.5344 54.5137 46.778 54.6964 46.8998C54.8791 47.0216 55.0009 47.1435 55.1837 47.2653H55.2446C55.4273 47.3262 55.61 47.3871 55.7927 47.448C56.0364 47.5089 56.2191 47.448 56.5237 47.3871C56.8282 47.3262 57.0718 47.0825 57.3155 46.8389C57.62 46.5344 57.8637 46.108 58.1682 45.5598L59.2036 43.4889L55.9146 41.8444Z" fill="white"/>
        <path d="M46.8391 59.569L45.9255 58.229L50.3109 55.2444L49.7018 54.3917L45.4382 57.3153L44.5245 55.9753L48.7882 53.0517L48.1182 52.0771L43.6718 55.1226L42.7582 53.7826L49.0318 49.519L53.0518 55.3662L46.8391 59.569Z" fill="white"/>
        <path d="M44.0981 60.9091L39.469 61.8836C38.799 62.0054 38.1899 62.1273 37.7026 62.1273C37.1544 62.1273 36.7281 62.1273 36.3017 62.0055C35.8753 61.9445 35.5708 61.8227 35.2663 61.64C34.9617 61.4573 34.779 61.2745 34.5354 61.0918C34.2917 60.9091 34.1699 60.6654 34.109 60.4218C33.9872 60.1782 33.9263 59.9345 33.8653 59.63L33.8044 59.3254C33.7435 59.0818 33.7435 58.8382 33.7435 58.5336C33.7435 58.2291 33.8044 57.9854 33.8653 57.6809C33.9263 57.3764 34.109 57.1327 34.2917 56.8282C34.4744 56.5236 34.7181 56.28 35.0835 56.0364C35.3881 55.7927 35.8144 55.5491 36.3017 55.3664C36.789 55.1836 37.3372 55.0009 38.0681 54.8791L42.6972 53.9045L44.0981 60.9091ZM40.809 56.0973L38.5553 56.5845C37.9463 56.7064 37.459 56.8891 37.0935 57.0718C36.7281 57.2545 36.4844 57.4982 36.3626 57.6809C36.1799 57.9245 36.119 58.1073 36.119 58.3509C36.119 58.5945 36.119 58.7773 36.1799 58.96V59.0209C36.2408 59.2036 36.3017 59.3864 36.3626 59.5691C36.4844 59.7518 36.6063 59.9345 36.8499 60.0564C37.0935 60.1782 37.3981 60.3 37.7635 60.3C38.129 60.3 38.6772 60.3 39.2863 60.1782L41.5399 59.6909L40.809 56.0973Z" fill="white"/>
        <path d="M30.7591 55.3053L32.9518 55.4881L32.4645 62.5536L30.2719 62.3709L30.7591 55.3053Z" fill="white"/>
        <path d="M25.8864 59.8125L28.81 60.787L28.2618 62.3709L20.3436 59.7516L20.8918 58.1679L23.7545 59.0816L25.46 53.9652L27.5918 54.6961L25.8864 59.8125Z" fill="white"/>
        <path d="M20.6482 51.3462L22.5364 52.5644L18.6991 58.5335L16.8109 57.3153L20.6482 51.3462Z" fill="white"/>
        <path d="M11.1463 52.3207C10.6591 51.7725 10.2936 51.2244 10.05 50.7371C9.80634 50.2498 9.62361 49.8235 9.5018 49.3971C9.37998 48.9707 9.37998 48.6053 9.44089 48.3007C9.5018 47.9962 9.56271 47.6916 9.68452 47.3871C9.80634 47.0825 9.92816 46.8998 10.1109 46.7171C10.2936 46.5344 10.4154 46.3516 10.5982 46.2298L10.8418 46.0471C11.0245 45.9253 11.2073 45.7425 11.39 45.6207C11.6336 45.4989 11.8773 45.3771 12.1209 45.3162C12.4254 45.2553 12.73 45.1944 13.0345 45.1944C13.4 45.1944 13.7045 45.2553 14.1309 45.438C14.4963 45.5598 14.9227 45.8035 15.3491 46.1689C15.7754 46.4735 16.2627 46.9607 16.75 47.5089L16.9936 47.8135C17.4809 48.3616 17.8463 48.9098 18.1509 49.3971C18.3945 49.8844 18.5773 50.3107 18.6991 50.7371C18.8209 51.1635 18.8209 51.5289 18.76 51.8335C18.6991 52.138 18.6382 52.4425 18.5163 52.7471C18.3945 52.9907 18.2727 53.2344 18.09 53.4171C17.9073 53.5998 17.7854 53.7825 17.6027 53.9044L17.3591 54.0871C17.1763 54.2089 16.9936 54.3916 16.8109 54.5135C16.5673 54.6353 16.3236 54.7571 16.08 54.818C15.8363 54.8789 15.5318 54.9398 15.1663 54.9398C14.8618 54.9398 14.4963 54.818 14.07 54.6962C13.7045 54.5135 13.2782 54.2698 12.8518 53.9653C12.4254 53.6607 11.9382 53.1735 11.4509 52.6253L11.1463 52.3207ZM12.06 47.9962C11.8773 48.118 11.7554 48.3007 11.6336 48.4835C11.5118 48.6662 11.4509 48.9098 11.4509 49.2144C11.4509 49.5189 11.5118 49.8235 11.6945 50.1889C11.8773 50.5544 12.1209 50.9807 12.4863 51.4071C12.9127 51.8944 13.2782 52.1989 13.5827 52.3816C13.8872 52.5644 14.1918 52.6862 14.4963 52.7471C14.74 52.808 14.9836 52.7471 15.2273 52.6862C15.4709 52.6253 15.5927 52.5035 15.7754 52.3207L15.8363 52.2598C16.0191 52.138 16.1409 51.9553 16.2627 51.7725C16.3845 51.5898 16.4454 51.3462 16.4454 51.0416C16.4454 50.7371 16.3845 50.4325 16.2018 50.0671C16.08 49.7016 15.7754 49.2753 15.41 48.8489C15.0445 48.4225 14.6791 48.0571 14.3136 47.8744C14.0091 47.6916 13.6436 47.5698 13.4 47.5089C13.0954 47.448 12.8518 47.5089 12.6691 47.5698C12.4254 47.6307 12.2427 47.7525 12.1209 47.9353L12.06 47.9962Z" fill="white"/>
        <path d="M5.90821 43.3062L8.95369 37.7025L4.69002 38.9207L4.08093 36.7889L10.9028 34.8398L11.5119 36.9716L8.28369 42.8798L12.791 41.6007L13.4001 43.7325L6.57824 45.6816L5.90821 43.3062Z" fill="white"/>
        <path d="M10.9028 32.2207L10.111 32.038C9.92823 31.9771 9.7455 31.9162 9.56277 31.8553C9.38005 31.7944 9.19732 31.6725 9.01459 31.5507C8.83186 31.4289 8.64914 31.2462 8.46641 31.0634C8.28368 30.8807 8.16186 30.6371 8.04005 30.3325C7.91823 30.028 7.85732 29.6625 7.7355 29.2971C7.61368 28.9316 7.67459 28.3835 7.67459 27.8353L7.7355 26.1298C7.7355 25.8862 7.7355 25.7034 7.7355 25.5207C7.7355 25.3989 7.67459 25.2771 7.67459 25.1553C7.67459 25.0944 7.61368 25.0334 7.55277 24.9725C7.49186 24.9116 7.43096 24.9116 7.43096 24.9116C7.37005 24.9116 7.30914 24.9116 7.24823 24.9116C7.18732 24.9116 7.12641 24.9725 7.00459 25.0944C6.94368 25.2162 6.82187 25.3989 6.76096 25.5816C6.70005 25.8253 6.57823 26.1298 6.51732 26.4953C6.3955 26.9216 6.33459 27.2871 6.3955 27.5307C6.45641 27.7744 6.45641 28.018 6.51732 28.1398C6.57823 28.3225 6.70005 28.3835 6.76096 28.4444C6.88277 28.5053 6.94368 28.5662 7.0655 28.5662L6.51732 30.8198H6.45641C6.33459 30.7589 6.15186 30.7589 6.03003 30.6371C5.8473 30.5762 5.72548 30.4544 5.54276 30.3325C5.36003 30.2107 5.23821 30.028 5.11639 29.7844C4.99457 29.5407 4.87276 29.2971 4.81185 28.9925C4.75094 28.688 4.69003 28.2616 4.75094 27.8353C4.75094 27.4089 4.87276 26.8607 4.99457 26.2516L5.05548 25.8862C5.23821 25.0944 5.48185 24.4244 5.72548 23.9371C5.96912 23.4498 6.21277 23.0844 6.51732 22.8407C6.76096 22.5971 7.0655 22.4753 7.37005 22.4144C7.67459 22.3535 7.91823 22.4144 8.22277 22.4753C8.46641 22.5362 8.71005 22.658 8.89277 22.7189C9.0755 22.8407 9.25823 23.0234 9.38005 23.2671C9.50186 23.5107 9.56277 23.8153 9.62368 24.1807C9.68459 24.5462 9.68459 25.0335 9.62368 25.6425L9.50186 27.5916C9.50186 28.018 9.50186 28.3834 9.50186 28.6271C9.50186 28.8707 9.56277 29.1144 9.62368 29.2362C9.68459 29.358 9.7455 29.4798 9.80641 29.5407C9.86732 29.6016 9.92823 29.6016 9.98914 29.6625L11.0246 25.2771L10.111 25.0335L10.5982 22.9016L13.0955 23.5107L10.9028 32.2207Z" fill="white"/>
        <path d="M16.0191 13.887C16.2018 14.0089 16.3236 14.1916 16.5063 14.3743C16.6891 14.557 16.8718 14.8007 16.9936 15.0443C17.1154 15.2879 17.2372 15.5925 17.2981 15.897C17.3591 16.2016 17.3591 16.567 17.2981 16.9934C17.2372 17.4198 17.1154 17.8461 16.8718 18.3334C16.6281 18.8207 16.3236 19.3079 15.8972 19.917L15.6536 20.2825C15.2272 20.8307 14.8009 21.3179 14.4354 21.6225C14.0091 21.9879 13.6436 22.2316 13.2781 22.3534C12.9127 22.5361 12.5472 22.597 12.2427 22.6579C11.9381 22.7189 11.6336 22.6579 11.3291 22.597C11.0245 22.5361 10.7809 22.4143 10.5372 22.3534C10.2936 22.2316 10.1109 22.1098 9.92815 21.9879L9.68451 21.8052C9.50178 21.6834 9.31906 21.5007 9.13633 21.3179C8.9536 21.1352 8.77087 20.8916 8.64906 20.6479C8.52724 20.4043 8.40542 20.0998 8.34451 19.7952C8.2836 19.4907 8.2836 19.1252 8.34451 18.6989C8.40542 18.2725 8.52724 17.8461 8.77087 17.4198C9.01451 16.9325 9.31906 16.4452 9.74542 15.897L9.98906 15.5316C10.4154 14.9834 10.8418 14.4961 11.2072 14.1916C11.6336 13.8261 11.9991 13.5825 12.3645 13.4607C12.73 13.2779 13.0954 13.217 13.4 13.1561C13.7045 13.1561 14.0091 13.1561 14.3136 13.217C14.6181 13.2779 14.8618 13.3389 15.1054 13.4607C15.3491 13.5825 15.5318 13.7043 15.7145 13.8261L16.0191 13.887ZM14.4354 15.5925C14.2527 15.4707 14.07 15.3489 13.8872 15.2879C13.6436 15.227 13.4 15.227 13.1563 15.227C12.9127 15.2879 12.6081 15.4098 12.3036 15.5925C11.9991 15.7752 11.6945 16.1407 11.39 16.567C11.0854 16.9934 10.8418 17.4198 10.72 17.7243C10.5981 18.0898 10.5372 18.3943 10.5981 18.6379C10.5981 18.8816 10.72 19.1252 10.8418 19.3079C10.9636 19.4907 11.1463 19.6734 11.2681 19.7952L11.39 19.8561C11.5727 19.9779 11.7554 20.0998 11.9991 20.1607C12.2427 20.2216 12.4863 20.2216 12.73 20.2216C12.9736 20.1607 13.2781 20.0389 13.5827 19.8561C13.8872 19.6734 14.1918 19.3079 14.5572 18.8816C14.8618 18.4552 15.1054 18.0289 15.2272 17.7243C15.3491 17.3589 15.3491 17.0543 15.3491 16.8107C15.2881 16.567 15.2272 16.3234 15.1054 16.1407C14.9836 15.9579 14.8009 15.7752 14.6791 15.6534L14.4354 15.5925Z" fill="white"/>
        <path d="M18.5164 16.3234L18.0901 15.6534C18.0292 15.5316 17.9073 15.3489 17.8464 15.1662C17.7855 14.9834 17.7246 14.8007 17.6637 14.5571C17.6028 14.3134 17.6028 14.1307 17.6637 13.8262C17.6637 13.5825 17.7855 13.278 17.9073 13.0343C18.0292 12.7298 18.2118 12.4252 18.4555 12.1207C18.6991 11.8162 19.0646 11.4507 19.4301 11.0852L20.7092 9.92797C20.8919 9.74525 21.0137 9.62343 21.1355 9.50161C21.2573 9.37979 21.3183 9.31888 21.3183 9.19707C21.3792 9.13616 21.3791 9.07525 21.3791 9.01434C21.3791 8.95343 21.3792 8.89252 21.3183 8.83161C21.2573 8.7707 21.2573 8.70979 21.1964 8.70979C21.1355 8.64888 21.0136 8.64888 20.8918 8.70979C20.77 8.70979 20.5873 8.7707 20.3437 8.89252C20.1001 9.01434 19.8564 9.13616 19.491 9.31888C19.1255 9.56252 18.821 9.74525 18.6383 9.92797C18.4555 10.1107 18.3337 10.2934 18.2728 10.4762C18.2119 10.6589 18.2119 10.7807 18.2119 10.9025C18.2119 11.0243 18.2728 11.1462 18.3337 11.2071L16.3236 12.3643L16.2628 12.3034C16.2019 12.1816 16.141 12.0598 16.0801 11.8771C16.0192 11.6943 15.9583 11.5116 15.9583 11.3289C15.9583 11.1462 15.9582 10.9025 16.0191 10.6589C16.08 10.4152 16.2019 10.1716 16.3846 9.86707C16.5673 9.56252 16.811 9.31888 17.1764 9.01434C17.481 8.70979 17.9073 8.40525 18.4555 8.1007L18.76 7.91798C19.4909 7.49161 20.1 7.18707 20.5873 7.06525C21.0746 6.88252 21.5619 6.82161 21.8664 6.88252C22.171 6.94343 22.5364 7.00434 22.7191 7.18707C22.9627 7.36979 23.1455 7.55252 23.2673 7.79616C23.3892 8.03979 23.511 8.28343 23.5719 8.46616C23.6328 8.70979 23.6327 8.95343 23.5109 9.19707C23.45 9.4407 23.2673 9.74525 23.0236 9.98888C22.78 10.2934 22.4146 10.598 21.9882 11.0243L20.5873 12.1816C20.2827 12.4862 20.0391 12.6689 19.8564 12.9125C19.6736 13.0952 19.5519 13.278 19.491 13.3998C19.4301 13.5216 19.3691 13.6434 19.3691 13.7043C19.3691 13.7652 19.3692 13.8262 19.4301 13.8871L23.3282 11.6334L22.841 10.8416L24.7291 9.74525L26.0691 11.9989L18.5164 16.3234Z" fill="white"/>
        <path d="M24.9726 7.97896L24.6072 6.69986C24.9117 6.57805 25.1554 6.51714 25.3381 6.39532C25.5208 6.2735 25.7035 6.15168 25.8254 5.96896C26.0081 5.78623 26.1299 5.6035 26.1908 5.48168C26.2517 5.29896 26.3126 5.11623 26.3735 4.9335L28.0181 4.44623L29.7235 11.329L27.5917 11.8771L26.5563 7.6135L24.9726 7.97896Z" fill="white"/>
    </g>
    <defs>
        <clipPath id="clip0_1_558">
            <rect width="67" height="67" fill="white"/>
        </clipPath>
    </defs>
</svg>
