<svg width="67" height="67" viewBox="0 0 67 67" fill="none" xmlns="http://www.w3.org/2000/svg">
    <g clip-path="url(#clip0_1_578)">
        <path d="M33.5 67C52.0015 67 67 52.0015 67 33.5C67 14.9985 52.0015 0 33.5 0C14.9985 0 0 14.9985 0 33.5C0 52.0015 14.9985 67 33.5 67Z" fill="#DB007D"/>
        <path d="M33.8655 6.09115L34.0482 4.75114C34.3528 4.75114 34.6573 4.75114 34.9009 4.69024C35.1446 4.62933 35.3882 4.56842 35.5709 4.4466C35.7537 4.32478 35.9364 4.20296 36.0582 4.08114C36.18 3.95933 36.3018 3.7766 36.4237 3.59387L38.19 3.7766L37.3982 11.0248L35.1446 10.7812L35.6318 6.27388L33.8655 6.09115Z" fill="white"/>
        <path d="M48.6055 11.6949C48.5446 11.8776 48.4227 12.1213 48.24 12.304C48.1182 12.5476 47.8746 12.7303 47.6919 12.9131C47.4482 13.0958 47.2045 13.2785 46.9 13.4003C46.5954 13.5222 46.23 13.644 45.8036 13.644C45.3773 13.644 44.89 13.644 44.4028 13.5222C43.8546 13.4003 43.3064 13.2176 42.6364 12.9131L42.21 12.7913C41.54 12.4867 40.9918 12.1822 40.5654 11.8167C40.1391 11.5122 39.8346 11.1467 39.53 10.8422C39.2864 10.5376 39.1036 10.1722 38.9818 9.86762C38.86 9.56308 38.86 9.19762 38.86 8.95399C38.86 8.64944 38.9209 8.4058 38.9818 8.10126C39.0427 7.85762 39.1037 7.61399 39.2255 7.43126L39.3473 7.18762C39.4082 7.0049 39.53 6.76126 39.7127 6.57853C39.8345 6.3349 40.0173 6.15217 40.2609 5.96943C40.5045 5.78671 40.7482 5.60398 41.0528 5.48216C41.3573 5.36034 41.7227 5.29943 42.1491 5.23853C42.5754 5.23853 43.0018 5.23853 43.55 5.36034C44.0982 5.48216 44.6464 5.66489 45.3164 5.96943L45.6818 6.15217C46.3518 6.45671 46.9 6.76126 47.3264 7.0658C47.7527 7.37035 48.1182 7.7358 48.3619 8.04035C48.6055 8.34489 48.7882 8.71035 48.9101 9.01489C49.0319 9.31944 49.0318 9.62399 49.0318 9.92853C49.0318 10.2331 48.971 10.4767 48.9101 10.7813C48.8491 11.0249 48.7882 11.2685 48.6664 11.4513L48.6055 11.6949ZM46.5346 10.5376C46.5955 10.3549 46.6564 10.1113 46.7173 9.92853C46.7173 9.6849 46.7173 9.44126 46.5954 9.19762C46.4736 8.95399 46.2909 8.71035 46.0473 8.4058C45.8036 8.16217 45.3773 7.91853 44.89 7.6749C44.4027 7.43126 43.9154 7.30944 43.55 7.24853C43.1845 7.18762 42.88 7.24853 42.5755 7.30944C42.3319 7.37035 42.0882 7.49217 41.9664 7.6749C41.7837 7.85762 41.6619 8.04035 41.601 8.22308L41.54 8.34489C41.4791 8.52762 41.4182 8.77126 41.3573 9.01489C41.3573 9.25853 41.3573 9.50217 41.4791 9.7458C41.6009 9.98944 41.7836 10.294 42.0273 10.5376C42.2709 10.7813 42.6973 11.0249 43.1846 11.2685C43.6719 11.5122 44.1591 11.634 44.5245 11.6949C44.89 11.7558 45.1945 11.6949 45.4991 11.634C45.7427 11.5731 45.9864 11.3903 46.1691 11.2076C46.3519 11.0249 46.4737 10.8422 46.5346 10.6594V10.5376Z" fill="white"/>
        <path d="M56.4018 20.4658C56.2191 20.5876 56.0363 20.7094 55.7927 20.8921C55.5491 21.0139 55.3054 21.1358 55.0009 21.1967C54.6963 21.2576 54.3918 21.3185 54.0872 21.3185C53.7218 21.3185 53.3563 21.2576 52.9909 21.0748C52.6254 20.953 52.1991 20.7094 51.7727 20.3439C51.3463 20.0394 50.92 19.5521 50.4327 19.0039L50.1282 18.6994C49.6409 18.1512 49.3363 17.6639 49.0927 17.1767C48.8491 16.6894 48.6663 16.263 48.6054 15.8367C48.5445 15.4103 48.4836 15.0448 48.5445 14.7403C48.6054 14.3748 48.6663 14.0703 48.7882 13.8267C48.91 13.583 49.0927 13.3394 49.2145 13.0958C49.3972 12.913 49.58 12.7303 49.7018 12.6085L49.9454 12.4258C50.1282 12.3039 50.3109 12.1212 50.5545 11.9994C50.7982 11.8776 51.0418 11.7558 51.3463 11.6948C51.6509 11.6339 51.9554 11.573 52.26 11.573C52.6254 11.573 52.9909 11.6948 53.3563 11.8167C53.7218 11.9385 54.1482 12.1821 54.5745 12.5476C55.0009 12.8521 55.4272 13.3394 55.9145 13.8876L56.2191 14.1921C56.7063 14.7403 57.0109 15.2276 57.3154 15.7148C57.5591 16.2021 57.7418 16.6285 57.8027 17.0548C57.8636 17.4812 57.9245 17.8467 57.8636 18.1512C57.8027 18.5167 57.7418 18.7603 57.62 19.0648C57.4982 19.3085 57.3154 19.5521 57.1936 19.7958C57.0109 19.9785 56.8282 20.1612 56.7063 20.283L56.4018 20.4658ZM55.0009 18.5167C55.1836 18.3948 55.3054 18.2121 55.4272 18.0294C55.5491 17.8467 55.61 17.603 55.61 17.2985C55.61 16.9939 55.5491 16.6894 55.4272 16.3848C55.3054 16.0194 55.0618 15.6539 54.6963 15.2276C54.3309 14.8012 53.9654 14.4967 53.6609 14.253C53.3563 14.0703 53.0518 13.9485 52.7472 13.8876C52.5036 13.8267 52.1991 13.8876 52.0163 13.9485C51.7727 14.0094 51.59 14.1312 51.4682 14.253L51.4072 14.3139C51.2245 14.4358 51.1027 14.6185 50.9809 14.8012C50.8591 14.9839 50.7982 15.2276 50.7372 15.5321C50.7372 15.8367 50.7982 16.1412 50.92 16.5067C51.0418 16.8721 51.2854 17.2376 51.6509 17.6639C52.0163 18.0903 52.3209 18.3948 52.6863 18.5776C52.9909 18.7603 53.2954 18.8821 53.6 18.943C53.9045 19.0039 54.1482 18.943 54.3309 18.8821C54.5745 18.8212 54.7572 18.6994 54.94 18.5776L55.0009 18.5167Z" fill="white"/>
        <path d="M63.4064 32.4039L54.6964 26.1303L54.3309 24.2421L63.0409 30.5158L63.4064 32.4039ZM55.9146 32.6476C55.7928 32.0994 55.7927 31.6121 55.8537 31.1858C55.9146 30.8203 56.0364 30.5158 56.2191 30.2721C56.4018 30.0285 56.5846 29.8458 56.8282 29.7239C57.0718 29.6021 57.2546 29.5412 57.4373 29.4803L57.62 29.4194C57.8027 29.3585 57.9855 29.3585 58.2291 29.4194C58.4727 29.4194 58.7164 29.5412 58.96 29.663C59.2037 29.8458 59.4473 30.0894 59.63 30.3939C59.8127 30.6985 59.9955 31.1858 60.1173 31.7339L60.1782 31.9776C60.3 32.5258 60.3 33.013 60.2391 33.4394C60.1782 33.8049 60.0564 34.1094 59.8737 34.353C59.6909 34.5967 59.5082 34.7794 59.3255 34.8403C59.0818 34.9621 58.8991 35.023 58.7164 35.0839L58.5337 35.1448C58.3509 35.2058 58.1682 35.2058 57.9246 35.1448C57.6809 35.1448 57.4373 35.023 57.1937 34.9012C56.95 34.7794 56.7064 34.5358 56.5237 34.1703C56.28 33.8658 56.1582 33.3785 56.0364 32.8303L55.9146 32.6476ZM57.1328 32.5258C57.1937 32.7694 57.2546 32.9521 57.3155 33.1349C57.3764 33.3176 57.4982 33.3785 57.62 33.5003C57.7418 33.5612 57.8027 33.6221 57.9246 33.683C58.0464 33.683 58.1682 33.683 58.2291 33.683H58.29C58.4118 33.683 58.4727 33.6221 58.5946 33.5612C58.7164 33.5003 58.7773 33.4394 58.8382 33.3176C58.8991 33.1958 58.96 33.0739 58.96 32.8912C58.96 32.7085 58.96 32.5258 58.8991 32.2821C58.8382 32.0385 58.7773 31.8558 58.7164 31.673C58.6555 31.4903 58.5337 31.4294 58.4727 31.3076C58.3509 31.2467 58.29 31.1858 58.1682 31.1248C58.0464 31.1248 57.9246 31.1248 57.8637 31.1248H57.8028C57.6809 31.1248 57.5591 31.1858 57.4982 31.2467C57.3764 31.3076 57.3155 31.4294 57.2546 31.4903C57.1937 31.6121 57.1328 31.7339 57.1328 31.9167C57.0718 32.0385 57.0718 32.2821 57.1328 32.5258ZM57.62 24.6076C57.4982 23.9985 57.4982 23.5112 57.5591 23.1458C57.62 22.7803 57.7418 22.4758 57.9246 22.2321C58.1073 21.9885 58.29 21.8058 58.5337 21.7449C58.7773 21.623 58.96 21.5621 59.1427 21.5012L59.3255 21.4403C59.5082 21.3794 59.6909 21.3794 59.9346 21.4403C60.1782 21.4403 60.4218 21.5621 60.6655 21.6839C60.9091 21.8667 61.1527 22.0494 61.3355 22.4148C61.5182 22.7194 61.7009 23.2067 61.8227 23.7548L61.8837 23.9985C62.0055 24.6076 62.0055 25.0948 61.9446 25.4603C61.8837 25.8258 61.7618 26.1303 61.5791 26.3739C61.3964 26.6176 61.2137 26.8003 61.0309 26.8612C60.7873 26.983 60.6046 27.0439 60.4218 27.1048L60.2391 27.1658C60.1173 27.1658 59.9955 27.2267 59.8127 27.2267C59.6909 27.2267 59.5082 27.2267 59.3255 27.1658C59.1427 27.1048 59.0209 27.0439 58.8382 26.983C58.6555 26.8612 58.5337 26.7394 58.3509 26.5567C58.2291 26.3739 58.0464 26.1303 57.9246 25.8867C57.8027 25.643 57.6809 25.2776 57.62 24.9121V24.6076ZM58.8382 24.4858C58.8991 24.7294 58.96 24.9121 59.0209 25.0948C59.0818 25.2776 59.2037 25.3385 59.3255 25.4603C59.4473 25.5212 59.5082 25.5821 59.63 25.643C59.7518 25.643 59.8737 25.643 59.9346 25.643H59.9955C60.1173 25.643 60.2391 25.5821 60.3 25.5212C60.4218 25.4603 60.4827 25.3994 60.5437 25.2776C60.6046 25.1558 60.6655 25.0339 60.6655 24.8512C60.6655 24.6685 60.6655 24.4858 60.6046 24.2421C60.5437 23.9985 60.4827 23.8158 60.4218 23.633C60.3609 23.5112 60.2391 23.3894 60.1782 23.2676C60.0564 23.2067 59.9955 23.1458 59.8737 23.0849C59.7518 23.0849 59.63 23.0849 59.5082 23.0849H59.4473C59.3255 23.0849 59.2646 23.1458 59.1427 23.2067C59.0209 23.2676 58.96 23.3285 58.8991 23.4503C58.8382 23.5721 58.7773 23.6939 58.7773 23.8767C58.7773 24.0594 58.7773 24.2421 58.8382 24.4858Z" fill="white"/>
        <path d="M54.6964 40.6265L55.61 38.5556L62.31 41.4793L59.9954 46.9002C59.7518 47.4484 59.5082 47.8747 59.2645 48.2402C59.0209 48.5447 58.7773 48.7884 58.4727 48.9711C58.2291 49.1538 57.9854 49.2147 57.7418 49.2147C57.4982 49.2147 57.2545 49.1538 57.0109 49.032L56.8891 48.9711C56.6454 48.8493 56.4627 48.7275 56.3409 48.5447C56.2191 48.362 56.0973 48.2402 56.0363 48.0575C55.9754 47.8747 55.9145 47.692 55.9145 47.5093C55.9145 47.3265 55.9145 47.2047 55.9145 47.0829C55.7927 47.2047 55.6709 47.3875 55.4882 47.5093C55.3054 47.6311 55.1836 47.692 55.0009 47.7529C54.8182 47.8138 54.6354 47.8138 54.4527 47.8138C54.27 47.8138 54.0264 47.7529 53.8436 47.692L52.8691 47.2656C52.6254 47.1438 52.3818 47.0829 52.26 47.0829C52.1382 47.0829 52.0164 47.0829 51.9554 47.0829H51.8945L52.8082 44.9511C52.8691 44.9511 52.93 44.9511 52.9909 44.9511C53.0518 44.9511 53.1736 45.012 53.2954 45.012L54.0873 45.3775C54.5136 45.5602 54.8182 45.5602 55.1227 45.4384C55.4273 45.3165 55.6709 45.012 55.8536 44.4638L57.0718 41.7229L54.6964 40.6265ZM58.5945 42.332L57.1936 45.4993C57.0718 45.8038 57.0109 46.0475 57.0718 46.2302C57.1327 46.4129 57.2545 46.5347 57.4373 46.6565C57.62 46.7175 57.8027 46.7175 57.9854 46.6565C58.1682 46.5956 58.3509 46.4129 58.4727 46.1084L59.8736 42.9411L58.5945 42.332Z" fill="white"/>
        <path d="M51.2854 57.681L50.1282 56.5238L54.0263 52.6865L53.2954 51.8947L49.5191 55.6101L48.3618 54.3919L52.1382 50.6765L51.2854 49.8238L47.3263 53.7219L46.1082 52.5038L51.6509 47.0219L56.7672 52.1992L51.2854 57.681Z" fill="white"/>
        <path d="M41.601 54.5139C42.271 54.2702 42.8192 54.0875 43.3674 53.9657C43.9156 53.9048 44.3419 53.8439 44.7683 53.9048C45.1947 53.9657 45.5601 54.0266 45.8647 54.2093C46.1692 54.3311 46.4128 54.5139 46.6565 54.7575C46.9001 54.9402 47.0828 55.1839 47.2047 55.4275C47.3265 55.6711 47.4483 55.8539 47.5092 56.0975L47.631 56.3411C47.6919 56.5239 47.8138 56.7675 47.8747 57.0721C47.9356 57.3157 47.9356 57.6202 47.9356 57.9248C47.9356 58.2293 47.8747 58.5339 47.7528 58.8384C47.631 59.143 47.4483 59.4475 47.2047 59.813C46.961 60.1175 46.5956 60.4221 46.1692 60.7266C45.7428 61.0309 45.1947 61.3354 44.5247 61.5791L44.1592 61.7009C43.4892 61.9445 42.941 62.1273 42.3928 62.2491C41.9056 62.3709 41.4183 62.3709 40.9919 62.3709C40.5656 62.3709 40.261 62.31 39.9565 62.1882C39.6519 62.0664 39.4083 61.9445 39.2256 61.8227C39.0428 61.7009 38.8601 61.5182 38.7383 61.3354C38.6165 61.1527 38.5556 61.0309 38.4947 60.9091L38.3728 60.7266L40.6265 59.813C40.6265 59.8739 40.7483 59.9348 40.8092 59.9957C40.931 60.1175 41.1138 60.1784 41.2965 60.2393C41.5401 60.3002 41.8447 60.3002 42.1492 60.3002C42.5147 60.3002 42.941 60.1175 43.4892 59.9348C43.9765 59.7521 44.4028 59.5084 44.6465 59.2648C44.951 59.0211 45.1338 58.7775 45.2556 58.5339C45.3774 58.2902 45.4383 58.0466 45.4383 57.803C45.4383 57.5593 45.3774 57.3157 45.3165 57.133L45.2556 57.0111C45.1947 56.8284 45.0728 56.6457 44.8901 56.4021C44.7074 56.2193 44.5247 56.0975 44.2201 55.9757C43.9156 55.8539 43.611 55.8539 43.2456 55.8539C42.8801 55.8539 42.4538 55.9757 41.9665 56.1584C41.4183 56.4021 40.9919 56.5848 40.7483 56.8284C40.4438 57.0721 40.261 57.3157 40.1392 57.4984C40.0174 57.6811 39.9565 57.8639 39.9565 58.0466C39.9565 58.1684 39.9565 58.2902 39.9565 58.3511L37.7028 59.2648L37.7638 59.2039C37.7028 59.0821 37.6419 58.8993 37.6419 58.6557C37.581 58.473 37.6419 58.2293 37.6419 57.9857C37.7028 57.7421 37.7638 57.4375 37.8856 57.1939C38.0074 56.8893 38.251 56.6457 38.4947 56.3411C38.7992 56.0366 39.1038 55.7321 39.591 55.4884C40.0174 55.1839 40.5656 54.9402 41.2356 54.6357L41.601 54.5139Z" fill="white"/>
        <path d="M33.9264 59.204L37.7636 63.7724L34.9009 63.7115L32.6473 60.9706L30.2718 63.6506L27.7136 63.5897L31.6118 59.204L31.6727 56.4022L33.9873 56.4631L33.9264 59.204Z" fill="white"/>
        <path d="M24.6073 54.6356C25.2773 54.8792 25.8254 55.1838 26.2518 55.4883C26.6782 55.7929 27.0436 56.0974 27.2872 56.402C27.5309 56.7065 27.7136 57.072 27.8354 57.3765C27.9572 57.681 28.0182 57.9856 28.0182 58.2901C28.0182 58.5947 28.0182 58.8992 27.9573 59.1429C27.8963 59.3865 27.8354 59.6301 27.7745 59.8129L27.6527 60.0565C27.5918 60.2392 27.47 60.4829 27.3482 60.7265C27.2263 60.97 27.0436 61.1527 26.8 61.3964C26.6172 61.5791 26.3127 61.7618 26.0082 61.9446C25.7036 62.0664 25.3382 62.1882 24.9727 62.2491C24.5463 62.31 24.12 62.2491 23.5718 62.1882C23.0236 62.1273 22.4754 61.9446 21.8054 61.64L21.44 61.5182C20.77 61.2746 20.2218 60.97 19.7954 60.6656C19.3691 60.361 19.0036 60.1174 18.6991 59.8129C18.4554 59.5083 18.2118 59.2647 18.09 58.9601C17.9682 58.6556 17.8463 58.412 17.8463 58.1683C17.7854 57.9247 17.7854 57.681 17.8463 57.4983C17.9073 57.3156 17.9073 57.1329 17.9682 57.011L18.0291 56.8892L20.2827 57.8029C20.2827 57.8638 20.2827 57.9247 20.2827 58.1074C20.2827 58.2292 20.3436 58.412 20.4654 58.6556C20.5872 58.8383 20.77 59.082 21.0745 59.3256C21.3791 59.5692 21.7445 59.752 22.2927 59.9956C22.78 60.1783 23.2672 60.3001 23.6327 60.361C23.9982 60.361 24.3027 60.361 24.5463 60.2392C24.79 60.1174 24.9727 59.9956 25.1554 59.8129C25.3382 59.6301 25.46 59.4474 25.5209 59.2038L25.5818 59.082C25.6427 58.8992 25.7036 58.6556 25.7036 58.412C25.7036 58.1683 25.6427 57.9247 25.5209 57.6201C25.3991 57.3765 25.2163 57.1329 24.9118 56.8283C24.6073 56.5847 24.2418 56.341 23.7545 56.1583C23.2063 55.9147 22.78 55.7929 22.4145 55.7929C22.0491 55.7929 21.7445 55.7929 21.5009 55.8538C21.2572 55.9147 21.1354 56.0365 21.0136 56.1583C20.8918 56.2801 20.8309 56.341 20.8309 56.341L18.5773 55.4274L18.6382 55.3056C18.6991 55.1838 18.76 55.001 18.8818 54.8183C19.0036 54.6356 19.1863 54.4529 19.3691 54.331C19.5518 54.1483 19.7954 54.0265 20.1 53.9047C20.4045 53.7829 20.7091 53.722 21.1354 53.722C21.5618 53.722 21.9882 53.722 22.5363 53.8438C23.0236 53.9656 23.6327 54.0874 24.3027 54.392L24.6073 54.6356Z" fill="white"/>
        <path d="M12.8518 56.0367L16.6891 52.0776L13.0345 48.5449L14.3136 47.2658L19.6127 52.3822L14.5573 57.6203L12.8518 56.0367Z" fill="white"/>
        <path d="M4.14185 43.3068L5.60366 42.5758L7.97909 47.4486L8.95363 46.9613L6.63909 42.2104L8.16182 41.4795L10.4764 46.2304L11.5727 45.6822L9.13636 40.6877L10.6591 39.9568L14.07 46.9613L7.49182 50.1895L4.14185 43.3068Z" fill="white"/>
        <path d="M3.10639 40.0783L2.80184 35.2665C2.74093 34.5356 2.80184 33.9265 2.86275 33.4392C2.92366 32.891 3.04548 32.4038 3.1673 32.0383C3.28911 31.6729 3.47184 31.3074 3.71548 31.0638C3.8982 30.8201 4.14184 30.5765 4.38548 30.4547C4.62911 30.272 4.87275 30.1501 5.1773 30.0892C5.42093 30.0283 5.72548 29.9674 5.96911 29.9674H6.27365C6.51728 29.9674 6.82183 29.9674 7.06547 30.0283C7.3091 30.0892 7.61365 30.1501 7.91819 30.272C8.16183 30.3938 8.46637 30.5765 8.71001 30.8201C8.95365 31.0638 9.19728 31.3683 9.38001 31.7338C9.56274 32.0992 9.74547 32.5256 9.86728 33.0738C9.9891 33.622 10.1109 34.231 10.1109 34.901L10.4155 39.7738L3.10639 40.0783ZM8.52728 37.5201L8.40547 35.1447C8.34456 34.4747 8.28365 33.9874 8.10092 33.622C7.9791 33.2565 7.79637 32.952 7.55274 32.7692C7.37001 32.5865 7.12637 32.4647 6.94365 32.4038C6.70001 32.282 6.51728 32.282 6.33456 32.282H6.27365C6.09092 32.282 5.90821 32.3429 5.66457 32.4038C5.42093 32.4647 5.2382 32.6474 5.05548 32.8301C4.87275 33.0738 4.75093 33.3783 4.62911 33.7438C4.5682 34.1701 4.5073 34.7183 4.5682 35.3274L4.69002 37.7029L8.52728 37.5201Z" fill="white"/>
        <path d="M9.62366 23.5722L11.7555 24.6686L10.72 26.6786L4.20276 23.3895L6.76093 18.5167C7.06547 17.9076 7.37002 17.4813 7.67456 17.1767C7.97911 16.8722 8.28366 16.6286 8.5882 16.5067C8.89275 16.3849 9.19729 16.324 9.50184 16.3849C9.80638 16.4458 10.1109 16.5067 10.4155 16.6895L10.4764 16.7504C10.7809 16.8722 11.0246 17.1158 11.2073 17.2986C11.39 17.5422 11.5727 17.7858 11.6337 18.1513C11.6946 18.4558 11.6946 18.8822 11.6337 19.3086C11.5727 19.7349 11.3291 20.2831 11.0246 20.8313L9.62366 23.5722ZM8.16184 22.8413L9.62366 20.0395C9.80638 19.7349 9.86729 19.4304 9.80638 19.2476C9.74547 19.004 9.62365 18.8822 9.44093 18.7604C9.19729 18.6386 9.01456 18.6386 8.83184 18.6995C8.64911 18.7604 8.46638 19.004 8.28366 19.3086L6.82184 22.1104L8.16184 22.8413Z" fill="white"/>
        <path d="M17.2373 16.8721L9.62366 13.7657L11.6337 12.1212L17.1764 14.4966L15.6537 8.77117L17.4809 7.24844L19.4909 15.1057L17.2373 16.8721Z" fill="white"/>
        <path d="M26.0692 11.8776C25.3992 12.0604 24.7901 12.1822 24.2419 12.2431C23.6938 12.304 23.2674 12.2431 22.841 12.1822C22.4147 12.1213 22.1101 11.9385 21.8056 11.8167C21.501 11.634 21.2574 11.4513 21.0747 11.2076C20.8919 10.964 20.7092 10.7813 20.5874 10.5376C20.4656 10.294 20.3438 10.0504 20.2828 9.86764L20.2219 9.624C20.161 9.44128 20.1001 9.19764 20.0392 8.89309C19.9783 8.64946 19.9783 8.34491 20.0392 8.04037C20.1001 7.73582 20.161 7.43127 20.2828 7.12673C20.4047 6.82218 20.6483 6.51764 20.9528 6.21309C21.2574 5.90854 21.6228 5.66491 22.1101 5.36036C22.5974 5.11672 23.1456 4.87309 23.8765 4.62945L24.2419 4.50763C24.9119 4.32491 25.521 4.14218 26.0692 4.14218C26.6174 4.08127 27.0438 4.08127 27.4701 4.14218C27.8356 4.20309 28.201 4.264 28.5056 4.44672C28.8101 4.56854 28.9928 4.75127 29.1756 4.87309C29.3583 5.05581 29.4801 5.23854 29.6019 5.36036C29.7238 5.54309 29.7847 5.66491 29.8456 5.84763L29.9065 5.96945L27.5919 6.70037C27.5919 6.63946 27.531 6.57855 27.4092 6.45673C27.2874 6.33491 27.1656 6.274 26.9219 6.15218C26.6783 6.09128 26.4347 6.03036 26.0692 6.03036C25.7038 6.03036 25.2774 6.09128 24.6683 6.274C24.1201 6.45673 23.7547 6.63946 23.4501 6.82218C23.1456 7.00491 22.9019 7.24855 22.7801 7.49218C22.6583 7.73582 22.5974 7.97946 22.5365 8.22309C22.5365 8.46673 22.5365 8.71037 22.6583 8.89309L22.7192 9.01491C22.7801 9.19764 22.9019 9.44128 23.0238 9.624C23.1456 9.80673 23.3892 9.98946 23.6328 10.1113C23.8765 10.2331 24.181 10.294 24.5465 10.3549C24.9119 10.3549 25.3383 10.294 25.8865 10.1722C26.4347 9.98946 26.861 9.80673 27.1656 9.56309C27.4701 9.31946 27.6528 9.13673 27.8356 8.954C27.9574 8.77127 28.0183 8.58855 28.0183 8.40582C28.0183 8.284 28.0183 8.16218 28.0183 8.10127L30.3328 7.37037L30.3938 7.49218C30.4547 7.614 30.4547 7.79673 30.4547 8.04037C30.4547 8.284 30.4547 8.46673 30.3938 8.71037C30.3328 8.954 30.211 9.19764 30.0892 9.50218C29.9065 9.74582 29.7238 10.0504 29.4192 10.294C29.1147 10.5376 28.7492 10.8422 28.2619 11.0858C27.7747 11.3295 27.2265 11.5731 26.5565 11.7558L26.0692 11.8776Z" fill="white"/>
        <path fill-rule="evenodd" clip-rule="evenodd" d="M26.4547 37.3354C26.4547 36.999 26.7274 36.7263 27.0638 36.7263H33.7963V42.8154H27.8379L27.8318 42.8153C26.6046 42.7907 25.8451 41.8354 25.4903 41.2983C25.3049 41.0176 25.3822 40.6398 25.6629 40.4544C25.9436 40.269 26.3214 40.3462 26.5068 40.6269C26.8369 41.1267 27.285 41.5831 27.8508 41.5972H32.5781V37.9445H27.0638C26.7274 37.9445 26.4547 37.6718 26.4547 37.3354Z" fill="white"/>
        <path fill-rule="evenodd" clip-rule="evenodd" d="M28.4809 30.0091L31.0018 35.9408L29.18 34.8885L26.6731 39.2308C26.6731 39.2309 26.6732 39.2308 26.6731 39.2308C26.5438 39.455 26.4384 39.749 26.4051 40.0285C26.3752 40.279 26.4092 40.4553 26.4669 40.5645C26.4823 40.5894 26.4957 40.6105 26.507 40.6276L25.5031 41.3173C25.4684 41.2687 25.437 41.219 25.4086 41.1684C25.1781 40.7897 24.6973 39.9336 24.2129 39.0711C24.1804 39.0134 24.148 38.9556 24.1156 38.8979C23.5124 37.8241 22.925 36.7815 22.735 36.4929L23.2437 36.1579L22.7353 36.4934C22.4417 36.0485 22.3562 35.5367 22.3668 35.1046C22.3771 34.6794 22.4823 34.255 22.6564 33.954L22.6589 33.9496L23.9018 31.8416L22.0862 30.7929L28.4809 30.0091ZM25.4541 31.6074L23.7099 34.5656C23.6608 34.6516 23.5912 34.8641 23.5846 35.1343C23.5781 35.3994 23.6343 35.6441 23.752 35.8224L23.7524 35.8229C23.9733 36.1584 24.5919 37.2585 25.1777 38.3013L25.222 38.3803C25.3138 38.5436 25.4045 38.7051 25.4929 38.8622C25.5322 38.7783 25.5742 38.698 25.618 38.6221L28.6129 33.4343L27.7185 31.3299L25.4541 31.6074Z" fill="white"/>
        <path fill-rule="evenodd" clip-rule="evenodd" d="M41.3602 28.7661L44.3403 33.9278L44.3433 33.9333C44.935 35.008 44.4885 36.1432 44.1995 36.7199C44.0488 37.0206 43.6828 37.1422 43.3821 36.9915C43.0813 36.8408 42.9597 36.4748 43.1104 36.1741C43.3784 35.6395 43.5492 35.0227 43.2788 34.5256L40.9143 30.4302L37.7509 32.2568L40.5083 37.0331C40.6765 37.3244 40.5767 37.697 40.2853 37.8651C39.994 38.0333 39.6215 37.9335 39.4533 37.6422L36.0869 31.8109L41.3602 28.7661Z" fill="white"/>
        <path fill-rule="evenodd" clip-rule="evenodd" d="M36.8044 34.6262V36.7286H41.8174C42.0765 36.7286 42.3838 36.6729 42.6425 36.5621C42.8742 36.4627 43.0099 36.3452 43.0756 36.2407C43.0895 36.2148 43.1012 36.1926 43.1103 36.1743L44.2094 36.6992C44.1846 36.7536 44.1572 36.8058 44.1275 36.8558C43.9153 37.2436 43.4167 38.0838 42.9136 38.9316C42.8783 38.9911 42.843 39.0506 42.8077 39.11C42.1793 40.1692 41.5703 41.1987 41.4157 41.5074C41.1773 41.984 40.7769 42.3139 40.3976 42.5208C40.0242 42.7245 39.6041 42.8457 39.2568 42.8457H39.2513L36.8041 42.8237L36.8031 44.9196L32.9269 39.7733L36.8044 34.6262ZM35.8252 41.5966L39.2588 41.6276C39.358 41.6269 39.5769 41.5808 39.8142 41.4514C40.0471 41.3243 40.2308 41.1533 40.3263 40.9623C40.5062 40.6031 41.1499 39.5168 41.7601 38.4884L41.813 38.3993C41.9063 38.242 41.9985 38.0865 42.0883 37.9351C41.9958 37.9429 41.9052 37.9468 41.8174 37.9468H35.8281L34.452 39.7734L35.8252 41.5966Z" fill="white"/>
        <path fill-rule="evenodd" clip-rule="evenodd" d="M37.1699 24.2384C36.9433 24.1001 36.7033 24.0264 36.4904 24.0392C36.1547 24.0593 35.8661 23.8034 35.846 23.4676C35.8258 23.1319 36.0817 22.8433 36.4175 22.8232C36.9497 22.7912 37.4357 22.9735 37.8046 23.1986C38.1676 23.4202 38.4825 23.7233 38.6561 24.0237L38.659 24.0287L39.8633 26.1591L41.6789 25.1108L39.1604 31.0416L32.7644 30.2584L34.5853 29.2067L33.0009 26.4621C32.8328 26.1708 32.9326 25.7983 33.2239 25.6301C33.5153 25.462 33.8878 25.5618 34.0559 25.8531L36.1283 29.443L38.3978 29.7209L39.2899 27.6201L37.6003 24.6314C37.5501 24.5458 37.4006 24.3792 37.1699 24.2384Z" fill="white"/>
        <path fill-rule="evenodd" clip-rule="evenodd" d="M30.8991 22.8042L30.9182 22.8043C31.7995 22.8073 32.6405 22.8131 33.3989 22.8184C34.6798 22.8273 35.7253 22.8346 36.3326 22.8238C36.3738 22.822 36.4152 22.8212 36.4568 22.8214L36.4685 24.0394C36.4385 24.0401 36.4072 24.0408 36.3746 24.0414C35.7622 24.0728 35.1754 24.5046 34.9127 24.9603L30.6852 32.2858L25.4119 29.2404L28.3911 24.0791L28.3944 24.0737C29.0297 23.0243 30.2358 22.8435 30.8801 22.8053L30.8991 22.8042ZM34.0667 24.0412C33.8384 24.0397 33.6005 24.038 33.3547 24.0363C32.6068 24.0312 31.7852 24.0255 30.9337 24.0225C30.3419 24.0601 29.7321 24.222 29.4395 24.6997L27.0758 28.7946L30.2392 30.6215L33.8572 24.3521C33.9176 24.2474 33.9877 24.1432 34.0667 24.0412Z" fill="white"/>
    </g>
    <defs>
        <clipPath id="clip0_1_578">
            <rect width="67" height="67" fill="white"/>
        </clipPath>
    </defs>
</svg>
