<svg width="18" height="17" viewBox="0 0 18 17" fill="none" xmlns="http://www.w3.org/2000/svg">
        <g>
            <title>bg</title>
            <path id="bg" fill="none"
                  d="m8.94617,17.001c-0.30418,0 -0.59115,-0.1291 -0.79203,-0.3531c-5.4495,-6.1307 -6.66342,-7.51172 -6.97047,-7.90021l-0.00569,0.00424c-0.75903,-0.95705 -1.17798,-2.15227 -1.17798,-3.36453c0,-2.97039 2.44489,-5.38642 5.45086,-5.38642c1.34014,0 2.58846,0.45372 3.56415,1.27324c0.99869,-0.81952 2.23839,-1.27324 3.53399,-1.27324c3.006,0 5.451,2.41603 5.451,5.38642c0,1.28882 -0.4563,2.48688 -1.2856,3.37587l-6.97331,7.88463l-0.79492,0.3531z"/>
        </g>
        <g>
            <title>bg</title>
            <path id="border" fill="#fff"
                  d="m8.94617,17.001c-0.30418,0 -0.59115,-0.1291 -0.79203,-0.3531c-5.4495,-6.1307 -6.66342,-7.51172 -6.97047,-7.90021l-0.00569,0.00424c-0.75903,-0.95705 -1.17798,-2.15227 -1.17798,-3.36453c0,-2.97039 2.44489,-5.38642 5.45086,-5.38642c1.34014,0 2.58846,0.45372 3.56415,1.27324c0.99869,-0.81952 2.23839,-1.27324 3.53399,-1.27324c3.006,0 5.451,2.41603 5.451,5.38642c0,1.28882 -0.4563,2.48688 -1.2856,3.37587l-6.97331,7.88463l-0.79492,0.3531zm-6.09086,-9.50812c0.29844,0.36155 3.54545,4.02532 6.08797,6.88792l6.20282,-7.00985c0.4878,-0.52319 0.7461,-1.21933 0.7461,-1.98355c0,-1.82194 -1.4994,-3.30504 -3.3432,-3.30504c-1.046,0 -2.0389,0.48777 -2.7262,1.33706c-0.20375,0.25238 -0.50644,0.37856 -0.83932,0.3899c-0.32571,-0.00425 -0.62991,-0.15739 -0.82505,-0.41685c-0.63276,-0.83228 -1.61996,-1.3115 -2.70757,-1.3115c-1.84376,0 -3.3431,1.48306 -3.3431,3.305c0,0.9613 0.39452,1.66027 0.7274,2.07995c0.00574,0.00851 0.01441,0.01704 0.02015,0.02696z"/>
        </g>
</svg>
